<?xml version="1.0" standalone="no"?>
<!DOCTYPE svg PUBLIC "-//W3C//DTD SVG 20010904//EN"
 "http://www.w3.org/TR/2001/REC-SVG-20010904/DTD/svg10.dtd">
<svg version="1.0" xmlns="http://www.w3.org/2000/svg"
 width="2168.000000pt" height="2168.000000pt" viewBox="0 0 2168.000000 2168.000000"
 preserveAspectRatio="xMidYMid meet">
<metadata>
Created by potrace 1.14, written by Peter Selinger 2001-2017
</metadata>
<g transform="translate(0.000000,2168.000000) scale(0.100000,-0.100000)"
fill="#000000" stroke="none">
<path d="M10068 16203 c-24 -28 -48 -80 -48 -105 0 -13 -9 -36 -20 -53 -11
-16 -20 -44 -20 -61 0 -17 -7 -37 -15 -44 -8 -7 -15 -18 -15 -24 0 -6 -6 -22
-13 -36 -8 -14 -19 -47 -26 -74 -6 -27 -25 -75 -41 -107 -17 -32 -30 -69 -30
-81 0 -13 -6 -32 -14 -43 -7 -11 -17 -36 -21 -55 -4 -19 -13 -44 -21 -55 -7
-11 -16 -37 -19 -57 -4 -21 -13 -42 -21 -48 -7 -7 -16 -33 -20 -58 -4 -26 -13
-56 -20 -67 -8 -11 -14 -27 -14 -37 0 -10 -4 -18 -10 -18 -5 0 -10 -8 -10 -17
0 -10 -9 -32 -19 -49 -10 -17 -22 -49 -26 -72 -4 -23 -10 -44 -15 -47 -4 -3
-11 -22 -15 -42 -4 -21 -13 -45 -21 -54 -16 -18 -53 -134 -61 -190 -3 -23 1
-48 11 -67 9 -17 16 -54 16 -81 0 -54 -15 -71 -63 -71 -23 0 -67 -37 -67 -56
0 -14 -45 -121 -57 -136 -6 -7 -16 -37 -23 -66 -6 -28 -16 -55 -21 -58 -5 -3
-9 -12 -9 -19 0 -8 -13 -43 -29 -77 -15 -35 -32 -74 -36 -88 -4 -14 -13 -38
-20 -55 -26 -62 -45 -122 -55 -174 -6 -30 -16 -62 -23 -70 -7 -9 -24 -50 -37
-91 -14 -41 -32 -88 -40 -105 -9 -16 -24 -57 -34 -90 -17 -58 -33 -98 -62
-158 -8 -16 -17 -47 -20 -70 -4 -23 -12 -49 -19 -57 -8 -8 -16 -32 -20 -52 -4
-21 -13 -42 -21 -49 -8 -6 -14 -22 -14 -34 0 -13 -7 -36 -15 -52 -23 -44 -41
-91 -71 -183 -15 -47 -31 -88 -36 -91 -5 -3 -13 -19 -18 -35 -28 -85 7 105 55
301 30 121 61 254 70 295 9 41 38 170 65 286 34 142 48 221 44 242 -17 83
-108 110 -168 50 -28 -29 -50 -86 -165 -433 -73 -220 -135 -402 -138 -405 -9
-8 7 83 17 95 4 5 11 28 15 50 4 22 21 94 37 160 16 66 33 140 38 165 21 105
61 283 89 395 39 151 39 172 4 186 -37 14 -68 -18 -83 -85 -7 -28 -21 -76 -31
-106 -36 -101 -69 -202 -69 -212 0 -6 -7 -24 -15 -41 -21 -47 -95 -276 -95
-296 0 -9 -4 -21 -10 -27 -12 -12 -18 -30 -165 -464 -34 -102 -83 -241 -109
-310 -26 -69 -55 -154 -66 -190 -10 -36 -40 -119 -65 -185 -26 -66 -65 -175
-87 -242 -23 -68 -46 -123 -52 -123 -7 0 -19 19 -28 43 -16 40 -95 249 -214
567 -163 431 -196 480 -361 525 -6 2 -28 29 -49 60 -20 31 -54 68 -74 81 -25
17 -43 40 -55 69 -22 60 -99 128 -162 145 -60 16 -71 25 -89 70 -15 37 -65 83
-109 100 -32 12 -148 13 -160 1 -6 -5 -53 -14 -105 -20 -52 -7 -99 -16 -105
-22 -5 -5 -32 -9 -60 -10 -27 0 -72 -4 -100 -9 -27 -5 -84 -14 -125 -20 -41
-6 -82 -14 -90 -19 -9 -5 -58 -12 -110 -15 -52 -4 -104 -11 -115 -16 -23 -9
-185 -30 -238 -30 -20 0 -39 -4 -42 -10 -3 -5 -21 -10 -38 -10 -22 -1 -45 -12
-76 -39 l-45 -38 -4 -89 c-3 -75 0 -104 23 -184 15 -52 31 -113 37 -135 13
-51 4 -142 -16 -164 -9 -10 -16 -21 -16 -25 0 -4 -15 -26 -33 -49 -19 -23 -46
-63 -61 -89 -43 -77 -77 -84 -191 -42 -38 14 -95 31 -125 37 -30 6 -57 14 -60
17 -5 7 -37 17 -145 45 -33 9 -69 21 -80 27 -15 9 -291 14 -1030 19 -555 5
-1199 13 -1430 19 -231 6 -695 10 -1031 10 l-611 0 -37 -37 c-68 -69 -67 -57
-63 -479 3 -208 8 -398 12 -422 4 -26 3 -53 -4 -70 -6 -15 -12 -88 -14 -162
-2 -130 -1 -137 25 -180 16 -27 41 -53 64 -65 34 -18 38 -26 50 -81 34 -168
132 -232 342 -222 l90 4 6 -30 c4 -17 6 -539 6 -1161 -1 -978 1 -1136 14
-1167 16 -37 77 -98 99 -98 8 0 17 -26 24 -66 17 -96 54 -151 127 -189 l59
-30 636 0 c716 0 690 -2 766 75 22 22 45 40 53 40 8 0 34 -18 59 -39 24 -22
68 -48 96 -58 56 -19 118 -21 807 -16 162 1 330 2 372 1 70 0 82 3 142 36 35
20 71 36 79 36 8 0 50 -17 93 -37 l79 -38 1070 0 1070 0 45 21 c92 44 146 127
230 354 58 159 69 182 80 175 6 -3 10 -11 10 -16 0 -5 17 -33 39 -62 21 -29
57 -89 81 -134 71 -140 145 -206 242 -219 57 -7 153 22 443 132 127 48 300
111 385 140 85 28 184 65 220 82 36 16 117 46 180 67 63 20 134 47 157 61 90
52 153 166 137 251 -4 21 -34 108 -66 193 -33 85 -80 209 -104 275 -23 66 -80
215 -124 330 -45 116 -106 273 -135 350 -28 77 -85 223 -124 325 -40 102 -73
197 -73 213 -1 15 7 36 17 47 11 12 102 64 204 117 102 53 242 130 311 170 69
41 220 121 337 179 234 116 273 146 273 210 0 36 -30 76 -75 102 -42 23 4 39
320 111 77 18 185 43 240 56 55 13 127 29 160 36 33 6 89 19 125 29 36 10 91
22 123 25 56 6 57 6 57 -19 0 -24 -45 -161 -60 -181 -4 -5 -13 -32 -19 -60 -7
-27 -19 -57 -27 -66 -8 -9 -18 -38 -23 -65 -4 -27 -12 -58 -18 -69 -6 -11 -16
-36 -23 -55 -58 -164 -71 -197 -80 -212 -5 -10 -10 -30 -10 -45 -1 -16 -9 -46
-20 -68 -11 -22 -19 -49 -20 -59 0 -11 -6 -27 -13 -35 -8 -9 -21 -36 -29 -61
-29 -83 -41 -115 -51 -135 -14 -27 -57 -165 -57 -183 0 -8 -14 -42 -31 -75
-17 -34 -35 -86 -40 -116 -5 -30 -13 -57 -18 -60 -4 -3 -12 -26 -16 -51 -4
-24 -23 -76 -41 -115 -19 -41 -36 -95 -40 -130 -4 -33 -13 -69 -20 -80 -8 -11
-14 -27 -14 -37 0 -10 -4 -18 -9 -18 -5 0 -12 -13 -16 -29 -3 -16 -13 -35 -21
-42 -8 -6 -14 -17 -14 -23 -1 -6 -9 -29 -20 -51 -11 -22 -19 -50 -20 -63 0
-13 -11 -44 -25 -70 -14 -26 -25 -56 -25 -67 -1 -24 -29 -108 -52 -150 -8 -16
-19 -45 -23 -64 -4 -19 -16 -50 -27 -69 -10 -18 -21 -54 -25 -79 -3 -24 -14
-61 -24 -81 -11 -20 -19 -42 -19 -49 0 -8 -6 -24 -14 -36 -8 -12 -17 -38 -21
-57 -4 -19 -17 -57 -29 -85 -13 -27 -38 -95 -56 -150 -18 -55 -36 -104 -40
-110 -4 -5 -10 -26 -14 -45 -3 -19 -12 -48 -20 -65 -29 -64 -59 -159 -81 -254
-9 -41 -24 -86 -34 -100 -23 -34 -41 -78 -41 -99 0 -9 -6 -29 -14 -44 -8 -15
-17 -40 -21 -56 -3 -17 -15 -47 -26 -68 -10 -21 -19 -48 -19 -60 0 -12 -6 -27
-14 -33 -8 -7 -17 -28 -21 -49 -4 -20 -11 -42 -16 -48 -5 -6 -12 -33 -15 -60
-4 -27 -19 -71 -33 -99 -29 -53 -71 -174 -71 -202 0 -9 -6 -24 -14 -32 -7 -9
-27 -59 -44 -111 -17 -52 -37 -108 -46 -125 -9 -16 -16 -39 -16 -50 0 -11 -9
-38 -20 -60 -11 -22 -19 -46 -20 -53 0 -7 -4 -20 -9 -30 -5 -9 -14 -37 -20
-62 -7 -25 -16 -60 -20 -77 -5 -18 -18 -51 -30 -73 -12 -22 -21 -47 -21 -56 0
-8 -7 -26 -16 -39 -9 -14 -17 -47 -17 -74 -2 -41 2 -52 23 -70 14 -11 30 -20
37 -21 30 -1 146 154 165 221 5 15 15 29 23 33 21 8 14 -16 -48 -184 -27 -74
-52 -154 -55 -177 -9 -84 38 -143 114 -143 58 0 103 40 168 151 27 46 72 122
101 169 56 93 84 141 137 240 20 36 66 119 103 185 37 66 115 206 173 310 58
105 122 219 142 255 211 366 234 409 261 489 12 34 50 105 86 157 35 52 119
192 186 312 l122 217 0 103 c0 103 0 104 30 129 103 85 149 130 188 181 38 50
190 311 362 622 32 58 110 197 173 309 63 112 128 238 144 280 16 42 46 99 67
126 43 58 112 172 201 335 34 63 85 152 111 196 27 45 49 84 49 87 0 5 47 91
215 387 90 159 235 418 310 550 23 41 68 122 100 180 57 104 82 140 95 140 4
0 15 -20 24 -45 10 -25 27 -51 38 -59 18 -13 18 -19 9 -67 -10 -55 -28 -118
-54 -199 -8 -25 -23 -74 -32 -110 -10 -36 -21 -74 -26 -85 -4 -11 -16 -47 -24
-80 -9 -33 -25 -85 -35 -115 -11 -30 -26 -82 -34 -115 -15 -61 -50 -184 -81
-285 -9 -30 -27 -98 -40 -150 -13 -52 -29 -108 -36 -125 -6 -16 -15 -46 -19
-65 -11 -49 -48 -171 -59 -195 -5 -11 -21 -69 -37 -130 -15 -60 -33 -123 -40
-140 -17 -41 -54 -167 -54 -185 0 -14 -3 -25 -45 -152 -27 -82 -33 -176 -14
-225 12 -33 73 -93 94 -93 14 0 26 -35 39 -111 9 -50 57 -114 114 -150 26 -16
85 -41 132 -55 47 -14 139 -43 205 -65 66 -21 203 -64 305 -95 102 -30 245
-77 319 -102 152 -52 228 -59 294 -27 92 43 131 115 184 337 31 133 39 154 49
139 7 -10 16 -57 20 -105 4 -47 11 -89 15 -92 5 -3 9 -16 9 -30 0 -33 16 -60
72 -119 30 -33 50 -65 58 -95 26 -98 81 -170 166 -213 17 -9 78 -28 135 -42
57 -14 140 -37 184 -50 44 -13 130 -38 190 -55 61 -17 162 -49 225 -70 63 -21
134 -41 156 -45 87 -14 179 32 236 116 18 27 41 51 50 54 10 4 57 -7 105 -24
89 -30 161 -42 378 -61 134 -12 386 -41 607 -71 163 -22 198 -18 272 25 53 31
90 76 110 133 8 22 39 193 70 379 31 187 65 386 76 444 10 58 22 130 25 160 7
56 36 228 96 557 26 143 36 180 46 170 8 -9 15 -176 25 -617 7 -333 12 -649
10 -703 -4 -130 7 -164 73 -231 67 -69 73 -96 44 -191 -11 -38 -27 -95 -34
-125 -7 -30 -25 -95 -40 -145 -37 -125 -40 -149 -21 -164 9 -8 16 -22 16 -33
0 -20 56 -78 76 -78 24 0 44 -37 44 -82 0 -92 78 -183 183 -212 41 -11 112
-14 327 -12 162 2 285 7 301 14 89 36 142 128 325 561 59 140 89 182 156 220
139 78 179 134 186 264 4 63 7 77 19 73 8 -3 20 -6 28 -6 7 0 15 -20 19 -51
14 -104 78 -189 163 -219 25 -8 136 -15 333 -21 162 -4 329 -12 370 -18 41 -6
134 -10 206 -11 115 0 139 3 205 26 l74 26 85 -26 85 -26 360 11 c584 18 644
22 690 46 52 27 79 57 105 116 l21 48 -1 1881 c-1 2048 3 1908 -56 1985 -30
40 -96 79 -147 88 -29 6 -41 15 -54 39 -26 53 -63 95 -96 112 -28 15 -88 17
-555 16 l-524 -1 -74 -41 c-40 -22 -85 -40 -101 -40 -16 0 -55 19 -95 46 l-68
45 -93 0 c-252 -2 -1265 21 -1282 29 -11 5 -315 14 -675 19 -360 5 -712 12
-783 15 -140 7 -173 -2 -227 -60 -67 -73 -133 -99 -181 -73 -22 11 -82 23
-199 40 -41 5 -100 16 -130 24 -30 7 -91 17 -135 20 -44 4 -84 10 -90 14 -5 3
-46 11 -90 18 -226 34 -290 45 -300 53 -5 4 -50 11 -100 15 -49 4 -107 14
-127 21 -21 7 -66 16 -100 20 -35 4 -67 10 -73 14 -5 4 -46 10 -89 14 -43 3
-84 11 -91 16 -7 6 -39 11 -71 13 -53 2 -64 -2 -103 -30 -50 -37 -58 -50 -90
-148 -33 -100 -41 -106 -61 -46 -10 27 -31 69 -48 93 -30 44 -114 101 -165
114 -25 6 -57 39 -82 87 -13 25 -103 76 -135 77 -15 0 -30 4 -35 9 -6 5 -46
17 -90 25 -155 32 -180 38 -190 46 -5 4 -26 11 -45 15 -19 3 -50 13 -67 21
l-33 15 50 65 c27 35 68 97 91 137 23 39 68 106 99 147 75 100 447 657 483
723 74 137 -43 235 -219 182 -73 -22 -80 -20 -52 18 28 37 58 95 58 112 0 28
-46 55 -93 55 -25 0 -49 -4 -52 -10 -3 -5 -15 -10 -26 -10 -10 0 -45 -9 -76
-20 -32 -11 -83 -24 -113 -29 -30 -6 -91 -17 -135 -24 -44 -8 -98 -19 -120
-25 -22 -6 -64 -13 -92 -17 -29 -4 -55 -10 -58 -15 -3 -4 -38 -11 -77 -15 -40
-4 -78 -11 -83 -15 -6 -5 -51 -14 -100 -20 -50 -7 -94 -16 -100 -20 -5 -4 -39
-11 -75 -15 -36 -4 -69 -11 -75 -15 -5 -4 -41 -13 -80 -19 -38 -7 -83 -16
-100 -21 -16 -4 -57 -11 -90 -15 -33 -4 -85 -13 -115 -21 -30 -8 -72 -14 -94
-14 -104 0 -226 -46 -226 -85 0 -28 21 -60 47 -72 17 -8 74 -13 152 -14 l126
0 -50 -16 c-91 -27 -137 -93 -116 -163 24 -81 83 -99 324 -102 89 -1 144 -3
122 -5 -22 -3 -44 -9 -49 -14 -14 -13 -60 -11 -73 2 -12 12 -62 8 -128 -10
-22 -6 -67 -11 -101 -11 -33 0 -65 -5 -72 -12 -8 -8 -64 -13 -164 -16 -84 -2
-157 -8 -162 -13 -6 -5 -45 -9 -89 -9 -55 0 -90 -6 -120 -19 -36 -16 -75 -19
-274 -23 -154 -3 -237 -9 -246 -16 -23 -19 -397 -51 -562 -48 l-50 1 -6 400
c-4 220 -10 688 -13 1040 -4 352 -10 659 -15 682 -11 58 -36 92 -78 110 -43
17 -90 11 -126 -17 -14 -11 -28 -20 -31 -20 -3 0 -6 36 -6 80 0 84 -15 132
-45 144 -30 11 -62 6 -77 -11z m-21 -435 c-2 -13 -4 -5 -4 17 -1 22 1 32 4 23
2 -10 2 -28 0 -40z m-40 -185 c-2 -16 -4 -3 -4 27 0 30 2 43 4 28 2 -16 2 -40
0 -55z m-367 -1468 c25 -58 57 -163 65 -215 4 -25 13 -55 21 -68 8 -12 19 -48
25 -80 5 -31 19 -78 29 -104 29 -68 27 -88 -9 -88 -37 0 -78 33 -97 78 -8 20
-19 85 -24 146 -6 61 -17 140 -25 176 -13 59 -21 245 -8 210 3 -8 13 -33 23
-55z m-213 -124 c-8 -75 -24 -118 -39 -103 -8 8 -7 30 2 79 14 76 17 83 32 83
7 0 9 -19 5 -59z m3558 -48 c-3 -21 -16 -56 -28 -78 -19 -35 -27 -40 -61 -43
l-39 -3 16 25 c23 34 22 105 0 122 -16 12 -9 13 51 14 l68 0 -7 -37z m-310
-143 c-20 -39 -53 -57 -61 -35 -4 9 -2 27 4 41 9 18 19 24 42 24 l31 0 -16
-30z m535 -719 c21 -11 59 -23 86 -26 27 -4 69 -16 94 -27 25 -11 71 -23 102
-28 39 -6 68 -17 92 -36 30 -24 36 -36 42 -84 3 -30 10 -75 16 -100 5 -25 14
-86 19 -137 4 -51 15 -108 23 -127 8 -20 20 -79 26 -132 6 -53 12 -100 15
-104 2 -4 13 -64 24 -133 11 -70 22 -130 25 -135 3 -5 9 -53 15 -108 6 -55 17
-119 26 -143 8 -24 20 -94 25 -155 5 -61 16 -134 24 -161 8 -28 17 -78 21
-113 3 -34 12 -79 19 -100 7 -20 17 -72 21 -115 4 -43 11 -93 17 -110 5 -18
13 -84 18 -147 9 -129 19 -159 60 -184 28 -16 30 -16 61 12 27 24 33 38 40 93
4 35 22 111 39 169 50 169 71 241 87 305 8 33 21 75 29 93 7 18 17 51 20 75 4
23 10 47 14 52 4 6 13 28 19 50 7 22 21 72 32 110 11 39 27 90 36 115 8 25 21
70 28 100 8 30 20 75 28 100 8 25 25 81 37 125 12 44 30 103 41 130 10 28 19
60 19 72 0 12 9 46 19 75 32 90 71 222 71 240 0 10 13 32 29 50 l29 33 48 -24
c28 -14 75 -27 113 -31 36 -3 76 -11 88 -18 12 -6 54 -16 93 -22 39 -6 83 -16
99 -24 15 -8 56 -20 91 -26 155 -27 174 -41 158 -115 -6 -27 -16 -59 -23 -70
-7 -11 -16 -40 -20 -65 -4 -25 -13 -58 -21 -75 -7 -16 -20 -57 -28 -90 -30
-120 -38 -151 -57 -201 -11 -28 -24 -73 -29 -100 -5 -27 -16 -71 -25 -99 -9
-27 -25 -81 -36 -120 -11 -38 -27 -90 -36 -115 -8 -25 -19 -65 -23 -90 -5 -25
-18 -74 -29 -110 -11 -36 -30 -99 -42 -140 -12 -41 -28 -94 -36 -118 -8 -24
-21 -69 -28 -100 -13 -52 -32 -120 -86 -307 -12 -38 -28 -97 -36 -130 -8 -33
-21 -73 -28 -90 -7 -16 -16 -46 -19 -65 -4 -19 -15 -64 -26 -100 -10 -36 -28
-99 -40 -140 -11 -41 -29 -102 -39 -135 -11 -33 -25 -85 -31 -115 -7 -30 -16
-59 -20 -65 -4 -5 -15 -39 -23 -75 -29 -119 -48 -185 -62 -215 -7 -16 -16 -50
-19 -75 -4 -25 -13 -61 -21 -80 -11 -29 -48 -148 -69 -225 -3 -11 -15 -26 -26
-33 -24 -15 -80 -3 -145 31 -30 15 -55 20 -98 18 -59 -2 -122 17 -244 76 -50
24 -52 27 -58 71 -3 26 -10 65 -15 87 -11 42 -42 189 -65 312 -8 40 -21 96
-29 125 -8 29 -18 76 -21 103 -3 28 -14 84 -25 125 -10 41 -24 100 -30 130
-34 171 -50 241 -55 249 -3 5 -12 54 -20 108 -8 54 -22 125 -30 158 -16 65
-41 174 -73 325 -12 52 -30 154 -42 225 -12 72 -26 142 -32 158 -11 29 -44 43
-77 32 -23 -7 -53 -92 -71 -200 -6 -38 -18 -88 -25 -110 -31 -92 -48 -153 -60
-210 -7 -33 -20 -80 -29 -105 -31 -91 -55 -177 -65 -235 -12 -73 -44 -186 -65
-237 -9 -21 -16 -52 -16 -71 0 -18 -9 -62 -20 -98 -47 -150 -68 -227 -105
-389 -7 -30 -22 -83 -34 -117 -11 -34 -21 -68 -21 -76 0 -7 -11 -24 -25 -37
l-25 -23 -62 17 c-35 10 -83 26 -108 36 -25 10 -67 24 -93 30 -27 6 -59 17
-70 25 -12 8 -42 17 -67 21 -25 4 -65 19 -89 35 -36 23 -56 29 -102 29 -48 0
-63 5 -91 27 -18 15 -34 28 -36 29 -1 1 11 37 28 80 17 44 37 106 45 139 33
138 48 192 61 225 8 19 30 96 49 170 19 74 46 173 60 220 15 47 33 114 41 150
8 36 30 115 49 175 35 112 52 172 85 305 10 41 26 98 35 125 9 28 23 73 30
100 8 28 21 73 30 100 9 28 23 81 31 118 7 37 18 76 23 86 6 10 29 87 51 172
22 85 50 186 61 224 11 39 27 99 35 135 8 36 30 110 48 165 32 99 49 157 86
305 11 41 29 107 41 145 33 107 49 168 49 184 0 7 8 20 18 28 23 19 133 10
182 -16z m-6664 -135 c20 -44 22 -59 14 -81 -10 -26 -12 -27 -63 -21 -46 6
-65 2 -147 -29 -78 -30 -114 -38 -201 -44 -78 -5 -115 -12 -135 -26 -20 -13
-56 -20 -131 -25 -78 -5 -107 -11 -122 -24 -19 -17 -21 -17 -44 6 -17 17 -26
40 -30 78 -10 77 11 94 130 109 48 6 106 14 128 17 22 3 58 11 80 19 22 7 79
16 125 20 47 4 126 18 175 31 50 13 114 23 143 24 l53 0 25 -54z m209 -362
c14 -9 25 -21 25 -27 0 -6 9 -31 21 -56 51 -111 70 -152 114 -256 26 -60 56
-130 67 -155 12 -25 26 -58 33 -75 7 -16 24 -55 37 -85 14 -30 35 -80 48 -110
13 -30 33 -77 45 -105 13 -27 26 -61 30 -75 9 -30 77 -180 105 -232 11 -20 20
-42 20 -48 0 -12 11 -37 55 -135 58 -124 75 -164 75 -172 0 -27 56 -143 72
-148 20 -7 26 -59 8 -70 -17 -10 -61 -85 -71 -118 -22 -77 25 -125 86 -87 43
26 63 25 75 -4 5 -13 13 -27 18 -30 12 -7 94 -174 132 -271 4 -11 22 -50 39
-87 17 -37 31 -70 31 -74 0 -7 42 -101 66 -146 8 -14 14 -32 14 -39 0 -11 12
-39 70 -164 10 -22 34 -74 53 -115 19 -41 40 -95 47 -120 7 -24 20 -55 31 -68
10 -14 19 -31 19 -38 0 -7 21 -54 47 -104 68 -133 60 -146 -108 -174 -20 -4
-57 -22 -81 -40 -25 -19 -64 -40 -89 -46 -24 -7 -57 -20 -74 -30 -16 -9 -55
-21 -85 -24 -30 -4 -63 -15 -73 -23 -10 -9 -47 -20 -83 -25 -48 -5 -74 -14
-95 -33 -17 -14 -40 -25 -53 -25 -12 0 -39 -9 -61 -20 -65 -33 -56 -41 -139
144 -14 32 -26 64 -26 70 0 6 -8 27 -19 46 -10 19 -21 46 -26 60 -8 30 -39
102 -64 150 -10 19 -21 51 -25 71 -4 21 -13 42 -21 49 -8 7 -15 20 -15 29 0
10 -13 30 -30 46 -24 23 -41 29 -87 32 -40 3 -66 -1 -83 -11 -56 -34 -95 -47
-151 -51 -35 -2 -73 -12 -92 -23 -18 -10 -62 -32 -100 -47 -37 -15 -72 -34
-78 -41 -7 -8 -11 -96 -12 -242 -2 -167 -5 -233 -15 -244 -6 -8 -19 -35 -26
-59 -26 -81 -61 -164 -80 -191 l-18 -28 -389 0 c-360 0 -389 1 -397 18 -9 17
-3 404 19 1192 20 715 26 1018 34 1583 9 596 7 574 58 647 37 52 67 101 67
109 0 4 9 16 20 26 11 10 20 22 20 27 0 15 43 68 78 94 22 18 54 29 100 35 37
5 96 18 132 28 36 11 90 23 120 26 30 4 82 15 115 25 33 11 95 24 137 30 43 6
102 20 132 31 31 10 77 19 103 20 27 0 57 4 68 9 31 13 53 12 80 -6z m12484
-60 c13 -3 37 -15 53 -27 52 -40 140 -130 148 -153 5 -12 11 -658 14 -1436 4
-777 9 -1468 12 -1534 5 -117 4 -122 -18 -147 -47 -54 -90 -61 -365 -64 -207
-3 -258 -1 -281 11 -21 11 -39 12 -68 6 -25 -6 -43 -5 -49 1 -15 15 -7 3341 8
3352 12 7 504 0 546 -9z m-826 -12 c15 -14 17 -41 17 -297 l0 -283 -32 -15
c-25 -11 -88 -17 -252 -23 -283 -9 -260 10 -270 -225 -4 -95 -9 -201 -11 -234
-2 -33 -8 -181 -14 -330 -20 -506 -30 -700 -40 -850 -6 -82 -16 -310 -21 -505
-12 -387 -21 -559 -33 -576 -5 -8 -91 -11 -292 -11 -282 0 -285 0 -290 21 -2
12 -7 167 -10 346 -3 179 -11 471 -16 650 -15 474 -32 1373 -29 1532 2 126 0
141 -20 173 -12 19 -33 38 -47 41 -14 4 -135 5 -269 2 -133 -3 -249 -1 -256 3
-10 6 -13 67 -14 279 -2 267 -1 271 20 283 28 16 755 34 1386 34 408 0 477 -2
493 -15z m2148 -1 c12 -9 20 -27 20 -41 -7 -173 -17 -1285 -12 -1315 9 -51 8
-686 -4 -1422 -8 -540 -9 -574 -27 -593 -18 -19 -31 -20 -363 -20 -342 0 -344
0 -377 23 -43 30 -90 76 -112 108 -18 28 -17 106 14 1404 6 231 10 540 10 686
0 146 3 436 7 643 l6 378 57 58 c31 31 66 61 78 64 12 4 22 12 22 17 0 23 62
28 352 28 275 -1 310 -2 329 -18z m-4621 -57 c36 -8 118 -21 182 -28 135 -15
153 -27 163 -106 3 -25 11 -79 17 -120 9 -62 8 -102 -6 -215 -9 -77 -21 -160
-26 -185 -11 -48 -42 -281 -65 -475 -8 -66 -21 -151 -29 -190 -9 -38 -16 -92
-16 -118 0 -26 -7 -80 -15 -120 -8 -40 -21 -128 -29 -197 -28 -235 -47 -375
-61 -445 -8 -38 -17 -108 -20 -155 -3 -47 -14 -139 -25 -205 -21 -131 -55
-368 -65 -455 -4 -30 -15 -106 -26 -168 -10 -63 -19 -133 -19 -157 0 -46 -29
-95 -58 -95 -8 0 -36 10 -61 23 -38 18 -60 22 -131 20 -74 -2 -91 1 -139 24
-48 24 -67 27 -178 29 -130 3 -219 22 -230 51 -6 15 12 143 29 208 10 40 22
110 52 325 9 63 25 156 36 207 11 50 20 106 20 122 0 17 9 77 20 134 29 152
49 279 65 404 7 61 18 120 24 132 6 11 16 66 21 123 6 57 17 130 25 163 19 79
44 230 56 330 5 44 16 104 24 135 7 30 18 102 24 159 6 57 18 127 26 155 8 28
19 92 24 141 5 50 23 163 40 251 17 89 34 195 37 235 4 41 12 78 18 82 16 12
220 -1 296 -19z m-11693 -318 c37 -7 120 -17 184 -20 63 -4 137 -11 165 -16
85 -16 226 -59 243 -74 9 -8 30 -18 46 -22 29 -7 61 -36 135 -121 108 -125
136 -204 167 -475 13 -122 13 -149 0 -265 -24 -201 -35 -236 -119 -399 -22
-41 -146 -174 -163 -174 -7 0 -39 -13 -71 -29 -32 -15 -80 -38 -107 -50 -55
-24 -73 -54 -58 -93 13 -36 46 -56 111 -68 30 -6 62 -19 72 -30 10 -11 23 -20
28 -20 9 0 56 -39 85 -70 6 -6 20 -21 33 -32 12 -12 22 -27 22 -34 0 -6 7 -17
15 -24 8 -6 26 -48 41 -93 32 -102 41 -253 26 -477 -11 -171 -1 -382 22 -465
8 -27 17 -70 21 -95 9 -57 30 -120 62 -189 27 -58 22 -75 -21 -72 -52 4 -73 4
-159 -4 -70 -6 -100 -5 -153 10 -53 14 -89 17 -182 12 -65 -3 -127 -9 -139
-12 -18 -6 -25 0 -41 32 -11 21 -23 63 -27 93 -4 30 -13 71 -20 90 -7 20 -16
74 -20 120 -4 47 -13 108 -21 136 -7 28 -18 100 -24 160 -6 60 -17 147 -25
194 -7 47 -16 123 -20 170 -9 115 -58 220 -102 220 -8 0 -16 6 -19 14 -11 29
-69 39 -244 44 -214 5 -215 4 -231 -103 -6 -39 -11 -312 -12 -612 -1 -298 -5
-544 -9 -548 -19 -20 -606 -27 -697 -9 l-24 5 5 1675 c3 1092 9 1679 15 1685
6 6 130 14 284 20 151 5 308 13 349 18 134 14 502 12 577 -3z m-1549 -29 c12
-14 19 -591 7 -619 -6 -15 -32 -17 -241 -20 -300 -4 -276 13 -286 -211 -3 -89
-7 -696 -7 -1348 -1 -1139 -2 -1187 -19 -1203 -17 -15 -55 -16 -388 -14 l-369
3 -5 1380 c-3 759 -6 1381 -8 1382 -27 26 -69 30 -292 27 -228 -3 -235 -2
-258 18 -22 22 -22 23 -22 305 1 238 4 285 16 298 14 13 130 15 938 15 733 0
926 -3 934 -13z m5940 -294 c-2 -22 -9 -29 -30 -31 -33 -4 -34 1 -10 33 24 33
44 32 40 -2z m-72 -243 c-9 -22 -16 -49 -16 -59 0 -23 -48 -57 -61 -44 -12 12
8 112 26 129 11 11 55 23 64 17 2 -1 -4 -20 -13 -43z m550 -165 c-11 -8 -34
-15 -50 -14 l-31 1 30 13 c17 8 39 14 50 14 20 0 20 0 1 -14z m1202 -431 c-2
-12 -13 -20 -31 -22 -32 -4 -35 10 -6 39 23 23 43 14 37 -17z m510 -426 c-3
-7 -13 -15 -24 -17 -16 -3 -17 -1 -5 13 16 19 34 21 29 4z m-142 -286 c-12
-11 -18 7 -10 30 l8 23 4 -23 c2 -13 1 -26 -2 -30z m6865 -1332 c25 -14 25
-18 -16 -90 -19 -33 -39 -79 -45 -100 -6 -22 -26 -70 -44 -107 -19 -38 -39
-85 -46 -105 -6 -21 -16 -40 -21 -43 -5 -4 -9 -13 -9 -22 0 -9 -12 -41 -27
-71 -21 -40 -37 -59 -61 -69 -71 -30 -88 3 -52 101 12 30 27 90 35 133 7 43
20 98 28 123 8 25 23 80 32 122 9 42 22 84 29 93 6 9 39 20 76 26 35 5 66 12
69 15 8 7 32 4 52 -6z m-7751 -242 c0 -7 -5 -20 -10 -28 -8 -12 -10 -9 -10 13
0 15 5 27 10 27 6 0 10 -6 10 -12z m-466 -464 c10 -27 -3 -52 -31 -58 -35 -10
-37 -4 -11 37 26 41 33 44 42 21z m203 10 c-3 -3 -12 -4 -19 -1 -8 3 -5 6 6 6
11 1 17 -2 13 -5z m-177 -354 c0 -18 -38 -44 -49 -34 -4 4 39 54 46 54 2 0 3
-9 3 -20z m-274 -433 c7 -19 -15 -72 -25 -61 -12 13 -22 60 -14 68 11 11 33 7
39 -7z m-113 -250 c-3 -12 -12 -27 -19 -33 -7 -6 -18 -22 -23 -35 -9 -23 -10
-22 -10 9 -1 21 8 45 22 62 25 31 38 30 30 -3z m-76 -129 c-3 -8 -6 -5 -6 6
-1 11 2 17 5 13 3 -3 4 -12 1 -19z"/>
<path d="M6273 11763 c-22 -8 -34 -77 -23 -125 6 -24 15 -200 20 -393 6 -192
15 -417 22 -500 6 -82 10 -193 10 -245 -2 -122 9 -157 52 -168 38 -11 122 0
163 21 16 9 58 21 93 27 36 6 83 20 105 29 23 10 57 21 77 25 20 3 42 14 49
22 20 25 16 106 -7 140 -27 39 -64 112 -64 127 0 7 -12 35 -25 62 -14 28 -25
56 -25 63 0 7 -9 30 -19 50 -26 50 -71 157 -71 170 0 5 -7 15 -15 22 -8 7 -15
19 -15 28 0 8 -11 38 -24 66 -13 28 -35 83 -50 121 -15 39 -33 82 -41 97 -8
14 -15 32 -15 39 0 7 -9 31 -19 53 -11 23 -24 57 -29 76 -48 167 -88 218 -149
193z"/>
<path d="M3900 11535 c-14 -8 -40 -14 -58 -15 -44 0 -71 -15 -83 -48 -7 -17
-10 -151 -9 -361 1 -362 4 -382 56 -401 52 -20 194 -12 289 17 108 32 145 62
189 153 31 65 31 66 31 230 0 163 -1 166 -29 220 -42 79 -84 113 -210 170
-119 54 -137 57 -176 35z"/>
<path d="M18849 8020 c-135 -17 -244 -105 -288 -232 -27 -79 -34 -166 -22
-293 6 -60 15 -166 21 -235 41 -475 80 -840 99 -930 6 -25 13 -65 16 -90 22
-158 82 -394 117 -464 71 -142 158 -162 262 -60 84 81 207 298 337 591 110
248 401 977 403 1008 1 28 -1 30 -34 27 -19 -1 -55 -9 -80 -17 -67 -21 -115
-23 -115 -5 0 25 64 48 160 58 73 8 93 14 107 32 10 12 18 29 18 37 0 22 39
94 79 143 67 84 217 230 235 230 24 0 19 -13 -69 -200 -87 -184 -94 -205 -68
-218 10 -5 63 -12 118 -14 123 -6 188 -31 244 -94 42 -48 71 -131 71 -203 0
-88 -52 -230 -118 -321 -42 -59 -193 -203 -256 -244 -117 -77 -290 -130 -311
-95 -10 15 -3 19 66 35 84 20 149 57 216 123 99 99 176 237 208 373 44 188
-26 333 -186 387 -36 12 -73 19 -81 16 -16 -6 -32 -38 -106 -215 -22 -52 -110
-261 -196 -465 -87 -203 -173 -408 -193 -455 -52 -126 -137 -291 -183 -357
-56 -82 -153 -177 -216 -216 -72 -43 -68 -60 16 -70 72 -9 402 -1 520 13 195
22 368 41 505 56 319 33 478 79 583 169 99 86 164 307 202 690 6 61 15 137 20
170 55 345 70 478 70 619 -1 232 -49 335 -188 405 -206 103 -810 216 -1662
311 -89 10 -243 10 -321 0z"/>
<path d="M13711 7297 c-168 -84 -202 -301 -69 -437 50 -52 95 -72 171 -78 96
-7 181 29 238 102 29 37 59 123 59 171 0 47 -30 134 -58 170 -51 64 -136 105
-220 105 -44 0 -71 -7 -121 -33z m208 -87 c11 -5 33 -27 48 -47 25 -32 28 -45
28 -108 0 -63 -3 -76 -28 -108 -36 -47 -75 -67 -131 -67 -114 0 -180 89 -161
215 8 55 52 110 99 125 36 11 117 6 145 -10z"/>
<path d="M13135 7307 c-3 -7 -4 -125 -3 -262 l3 -250 48 -3 47 -3 0 99 0 99
93 5 c136 7 189 43 203 135 13 91 -30 162 -112 182 -62 16 -273 14 -279 -2z
m270 -101 c25 -18 24 -82 -2 -101 -12 -9 -45 -14 -95 -15 l-78 0 0 65 0 65 78
0 c51 0 85 -5 97 -14z"/>
<path d="M14128 7314 c-7 -7 18 -96 97 -344 20 -63 41 -130 46 -147 9 -32 12
-33 60 -33 56 0 53 -5 90 120 12 41 30 101 40 133 11 31 19 66 19 76 0 11 4
22 9 25 10 7 26 -30 42 -99 6 -27 16 -54 20 -59 5 -6 9 -18 9 -27 0 -9 11 -50
24 -90 l24 -74 52 0 53 0 22 70 c13 39 33 104 46 145 12 41 37 121 56 178 18
57 33 110 33 118 0 18 -95 20 -106 2 -4 -6 -13 -35 -20 -62 -7 -28 -22 -85
-34 -126 -12 -41 -27 -97 -34 -125 l-13 -50 -27 90 c-15 50 -32 101 -36 115
-5 14 -14 45 -20 70 -23 95 -27 100 -80 100 -55 0 -64 -8 -78 -70 -6 -25 -21
-76 -32 -115 -12 -38 -29 -97 -38 -130 l-16 -59 -17 59 c-10 33 -27 94 -39
135 -11 41 -28 99 -37 128 l-16 52 -47 0 c-26 0 -49 -3 -52 -6z"/>
<path d="M14935 7308 c-3 -8 -4 -126 -3 -263 l3 -250 185 0 185 0 3 43 3 42
-135 0 -136 0 0 65 0 64 128 3 127 3 0 45 0 45 -127 3 -128 3 0 54 0 54 133 3
132 3 0 45 0 45 -183 3 c-142 2 -184 0 -187 -10z"/>
<path d="M15395 7307 c-3 -7 -4 -125 -3 -262 l3 -250 50 0 50 0 3 98 3 97 52
0 52 0 35 -71 c64 -130 63 -129 119 -129 28 0 52 4 55 8 3 5 -20 52 -51 106
l-56 99 36 31 c46 41 57 64 57 125 0 40 -6 57 -32 92 -19 24 -48 48 -68 55
-49 17 -299 19 -305 1z m285 -107 c24 -24 25 -52 4 -85 -15 -23 -22 -25 -100
-25 l-84 0 0 65 0 65 80 0 c67 0 83 -3 100 -20z"/>
<path d="M15887 7314 c-4 -4 -7 -124 -7 -266 l0 -258 188 2 187 3 3 43 3 42
-140 0 -141 0 0 65 0 64 128 3 127 3 0 45 0 45 -127 3 -128 3 0 54 0 55 128 0
c70 0 133 4 140 9 8 5 12 23 10 47 l-3 39 -181 3 c-99 1 -183 -1 -187 -4z"/>
<path d="M16335 7307 c-3 -7 -4 -125 -3 -262 l3 -250 118 -3 c187 -4 255 27
326 148 22 37 21 185 -1 230 -54 111 -142 150 -339 150 -71 0 -101 -4 -104
-13z m274 -105 c50 -25 74 -63 79 -125 5 -65 -10 -116 -42 -146 -26 -25 -112
-51 -168 -51 l-38 0 0 170 0 170 68 0 c44 0 79 -6 101 -18z"/>
<path d="M17075 7308 c-3 -7 -4 -126 -3 -263 l3 -250 133 -3 c114 -2 139 0
177 17 56 25 85 70 85 133 0 39 -5 52 -33 82 l-33 35 25 26 c22 22 26 34 26
84 0 67 -21 105 -71 131 -41 21 -302 28 -309 8z m269 -104 c9 -8 16 -26 16
-39 0 -43 -24 -55 -111 -55 l-79 0 0 55 0 55 79 0 c59 0 84 -4 95 -16z m5
-209 c21 -22 22 -61 3 -86 -18 -22 -28 -24 -99 -24 l-78 0 -3 64 -3 63 85 -3
c47 -2 89 -8 95 -14z"/>
<path d="M17497 7313 c-3 -5 37 -82 88 -171 l94 -162 3 -93 3 -92 48 -3 47 -3
0 93 0 94 95 164 c55 94 92 167 87 172 -5 5 -31 8 -57 6 -47 -3 -49 -4 -78
-58 -80 -150 -94 -171 -104 -158 -11 14 -77 132 -103 183 -13 27 -21 30 -67
33 -28 2 -54 -1 -56 -5z"/>
</g>
</svg>
